<svg viewBox="0 0 860 520" xmlns="http://www.w3.org/2000/svg" font-family="'JetBrains Mono', 'Courier New', monospace">
  <defs>
    <linearGradient id="bg" x1="0" y1="0" x2="1" y2="1">
      <stop offset="0%" stop-color="#0a0a0a"/>
      <stop offset="100%" stop-color="#0f0f0f"/>
    </linearGradient>
    <linearGradient id="cardGrad" x1="0" y1="0" x2="0" y2="1">
      <stop offset="0%" stop-color="#1a1a1a"/>
      <stop offset="100%" stop-color="#141414"/>
    </linearGradient>
    <filter id="glow">
      <feGaussianBlur stdDeviation="3" result="coloredBlur"/>
      <feMerge><feMergeNode in="coloredBlur"/><feMergeNode in="SourceGraphic"/></feMerge>
    </filter>
    <filter id="subtleGlow">
      <feGaussianBlur stdDeviation="1.5" result="coloredBlur"/>
      <feMerge><feMergeNode in="coloredBlur"/><feMergeNode in="SourceGraphic"/></feMerge>
    </filter>
    <marker id="arrow" markerWidth="8" markerHeight="8" refX="6" refY="3" orient="auto">
      <path d="M0,0 L0,6 L8,3 z" fill="#00d97e" opacity="0.7"/>
    </marker>
    <marker id="arrowDim" markerWidth="8" markerHeight="8" refX="6" refY="3" orient="auto">
      <path d="M0,0 L0,6 L8,3 z" fill="#00d97e" opacity="0.35"/>
    </marker>
  </defs>

  <!-- Background -->
  <rect width="860" height="520" fill="url(#bg)" rx="12"/>
  <rect width="860" height="520" fill="none" stroke="#1e1e1e" stroke-width="1" rx="12"/>

  <!-- Subtle grid -->
  <pattern id="grid" width="40" height="40" patternUnits="userSpaceOnUse">
    <path d="M 40 0 L 0 0 0 40" fill="none" stroke="#ffffff" stroke-width="0.15" opacity="0.08"/>
  </pattern>
  <rect width="860" height="520" fill="url(#grid)" rx="12"/>

  <!-- Header -->
  <text x="430" y="36" text-anchor="middle" fill="#00d97e" font-size="10" letter-spacing="6" opacity="0.5">AURA-CTX · ARCHITECTURE</text>

  <!-- ═══════════════ COLUMN 1 — INPUT ═══════════════ -->
  <!-- User card -->
  <rect x="30" y="60" width="130" height="56" rx="6" fill="url(#cardGrad)" stroke="#00d97e" stroke-width="1" opacity="0.9"/>
  <text x="95" y="83" text-anchor="middle" fill="#00d97e" font-size="18" filter="url(#subtleGlow)">◈</text>
  <text x="95" y="103" text-anchor="middle" fill="#00d97e" font-size="10" letter-spacing="1">YOU</text>

  <!-- Commands block -->
  <rect x="30" y="148" width="130" height="164" rx="6" fill="url(#cardGrad)" stroke="#333" stroke-width="1"/>
  <text x="95" y="168" text-anchor="middle" fill="#555" font-size="8" letter-spacing="3">COMMANDS</text>
  <line x1="46" y1="175" x2="144" y2="175" stroke="#222" stroke-width="1"/>

  <!-- Command items -->
  <text x="46" y="196" fill="#00d97e" font-size="9.5" opacity="0.85">aura scan</text>
  <text x="46" y="196" fill="none" font-size="9.5"/>
  <text x="136" y="196" text-anchor="end" fill="#444" font-size="8">detect stack</text>

  <text x="46" y="216" fill="#00d97e" font-size="9.5" opacity="0.85">aura onboard</text>
  <text x="136" y="216" text-anchor="end" fill="#444" font-size="8">5 questions</text>

  <text x="46" y="236" fill="#00d97e" font-size="9.5" opacity="0.85">aura import</text>
  <text x="136" y="236" text-anchor="end" fill="#444" font-size="8">from exports</text>

  <text x="46" y="256" fill="#00d97e" font-size="9.5" opacity="0.85">aura setup</text>
  <text x="136" y="256" text-anchor="end" fill="#444" font-size="8">auto-config</text>

  <text x="46" y="276" fill="#00d97e" font-size="9.5" opacity="0.85">aura serve</text>
  <text x="136" y="276" text-anchor="end" fill="#444" font-size="8">start MCP</text>

  <text x="46" y="296" fill="#00d97e" font-size="9.5" opacity="0.85">aura audit</text>
  <text x="136" y="296" text-anchor="end" fill="#444" font-size="8">scan secrets</text>

  <!-- Arrow: user → commands -->
  <line x1="95" y1="116" x2="95" y2="148" stroke="#00d97e" stroke-width="1" stroke-dasharray="3,3" opacity="0.4" marker-end="url(#arrowDim)"/>

  <!-- ═══════════════ COLUMN 2 — PACKS ═══════════════ -->
  <!-- Arrow: commands → packs -->
  <line x1="160" y1="225" x2="212" y2="225" stroke="#00d97e" stroke-width="1.5" opacity="0.6" marker-end="url(#arrow)"/>

  <!-- Packs container -->
  <rect x="212" y="148" width="160" height="164" rx="6" fill="url(#cardGrad)" stroke="#2a2a2a" stroke-width="1"/>
  <text x="292" y="168" text-anchor="middle" fill="#555" font-size="8" letter-spacing="3">CONTEXT PACKS</text>
  <text x="292" y="180" text-anchor="middle" fill="#333" font-size="7">~/.aura/packs/</text>
  <line x1="228" y1="186" x2="356" y2="186" stroke="#222" stroke-width="1"/>

  <!-- YAML pack cards -->
  <rect x="228" y="194" width="128" height="28" rx="4" fill="#111" stroke="#2a2a2a" stroke-width="1"/>
  <text x="238" y="205" fill="#00d97e" font-size="8" opacity="0.7">📄</text>
  <text x="252" y="205" fill="#ccc" font-size="8.5">developer.yaml</text>
  <text x="238" y="216" fill="#444" font-size="7">TypeScript · Python · Cursor</text>

  <rect x="228" y="228" width="128" height="28" rx="4" fill="#111" stroke="#2a2a2a" stroke-width="1"/>
  <text x="238" y="239" fill="#00d97e" font-size="8" opacity="0.7">📄</text>
  <text x="252" y="239" fill="#ccc" font-size="8.5">writer.yaml</text>
  <text x="238" y="250" fill="#444" font-size="7">style · rules · tone</text>

  <rect x="228" y="262" width="128" height="28" rx="4" fill="#111" stroke="#2a2a2a" stroke-width="1"/>
  <text x="238" y="273" fill="#00d97e" font-size="8" opacity="0.7">📄</text>
  <text x="252" y="273" fill="#ccc" font-size="8.5">work.yaml</text>
  <text x="238" y="284" fill="#444" font-size="7">role · projects · context</text>

  <text x="292" y="303" text-anchor="middle" fill="#333" font-size="8">+ custom packs</text>

  <!-- ═══════════════ COLUMN 3 — MCP SERVER ═══════════════ -->
  <!-- Arrow: packs → MCP -->
  <line x1="372" y1="225" x2="422" y2="225" stroke="#00d97e" stroke-width="1.5" opacity="0.6" marker-end="url(#arrow)"/>

  <!-- MCP Server card -->
  <rect x="422" y="148" width="150" height="164" rx="6" fill="url(#cardGrad)" stroke="#00d97e" stroke-width="1.5" filter="url(#subtleGlow)"/>
  <text x="497" y="168" text-anchor="middle" fill="#00d97e" font-size="8" letter-spacing="3">MCP SERVER</text>
  <text x="497" y="180" text-anchor="middle" fill="#00d97e" font-size="7" opacity="0.5">localhost:3847</text>
  <line x1="438" y1="186" x2="556" y2="186" stroke="#1a3a2a" stroke-width="1"/>

  <!-- 3 levels -->
  <rect x="438" y="194" width="118" height="30" rx="3" fill="#0a1f14" stroke="#1a3a2a" stroke-width="1"/>
  <text x="448" y="206" fill="#00d97e" font-size="8" opacity="0.9">L1 · identity_card</text>
  <text x="448" y="217" fill="#336644" font-size="7">~50–100 tokens</text>

  <rect x="438" y="230" width="118" height="30" rx="3" fill="#0a1f14" stroke="#1a3a2a" stroke-width="1"/>
  <text x="448" y="242" fill="#00d97e" font-size="8" opacity="0.9">L2 · user_profile</text>
  <text x="448" y="253" fill="#336644" font-size="7">~200–500 tokens</text>

  <rect x="438" y="266" width="118" height="30" rx="3" fill="#0a1f14" stroke="#1a3a2a" stroke-width="1"/>
  <text x="448" y="278" fill="#00d97e" font-size="8" opacity="0.9">L3 · all_context</text>
  <text x="448" y="289" fill="#336644" font-size="7">~1000+ tokens</text>

  <text x="497" y="310" text-anchor="middle" fill="#225533" font-size="7.5">HTTP + SSE · read-only · token auth</text>

  <!-- ═══════════════ COLUMN 4 — AI TOOLS ═══════════════ -->
  <!-- Arrow: MCP → tools -->
  <line x1="572" y1="225" x2="620" y2="225" stroke="#00d97e" stroke-width="1.5" opacity="0.6" marker-end="url(#arrow)"/>

  <!-- Tools label -->
  <text x="740" y="133" text-anchor="middle" fill="#555" font-size="8" letter-spacing="3">AI TOOLS</text>

  <!-- Tool cards - 8 tools in 2 columns -->
  <!-- Col A -->
  <rect x="620" y="148" width="112" height="30" rx="5" fill="url(#cardGrad)" stroke="#252525" stroke-width="1"/>
  <text x="634" y="159" fill="#00d97e" font-size="10">◈</text>
  <text x="650" y="158" fill="#ccc" font-size="9">Claude Desktop</text>
  <text x="650" y="170" fill="#444" font-size="7">auto-configured</text>

  <rect x="620" y="186" width="112" height="30" rx="5" fill="url(#cardGrad)" stroke="#252525" stroke-width="1"/>
  <text x="634" y="197" fill="#00d97e" font-size="10">◈</text>
  <text x="650" y="196" fill="#ccc" font-size="9">Claude Code</text>
  <text x="650" y="208" fill="#444" font-size="7">auto-configured</text>

  <rect x="620" y="224" width="112" height="30" rx="5" fill="url(#cardGrad)" stroke="#252525" stroke-width="1"/>
  <text x="634" y="235" fill="#00d97e" font-size="10">⬡</text>
  <text x="650" y="234" fill="#ccc" font-size="9">Cursor IDE</text>
  <text x="650" y="246" fill="#444" font-size="7">auto-configured</text>

  <rect x="620" y="262" width="112" height="30" rx="5" fill="url(#cardGrad)" stroke="#252525" stroke-width="1"/>
  <text x="634" y="273" fill="#00d97e" font-size="10">⬡</text>
  <text x="650" y="272" fill="#ccc" font-size="9">Windsurf IDE</text>
  <text x="650" y="284" fill="#444" font-size="7">auto-configured</text>

  <!-- Col B -->
  <rect x="740" y="148" width="100" height="30" rx="5" fill="url(#cardGrad)" stroke="#252525" stroke-width="1"/>
  <text x="754" y="159" fill="#00d97e" font-size="10">⬡</text>
  <text x="770" y="158" fill="#ccc" font-size="9">VS Code</text>
  <text x="770" y="170" fill="#444" font-size="7">auto-configured</text>

  <rect x="740" y="186" width="100" height="30" rx="5" fill="url(#cardGrad)" stroke="#252525" stroke-width="1"/>
  <text x="754" y="197" fill="#00d97e" font-size="10">◆</text>
  <text x="770" y="196" fill="#ccc" font-size="9">Gemini CLI</text>
  <text x="770" y="208" fill="#444" font-size="7">auto-configured</text>

  <rect x="740" y="224" width="100" height="30" rx="5" fill="url(#cardGrad)" stroke="#252525" stroke-width="1"/>
  <text x="754" y="235" fill="#00d97e" font-size="10">◆</text>
  <text x="770" y="234" fill="#ccc" font-size="9">ChatGPT</text>
  <text x="770" y="246" fill="#444" font-size="7">SSE · manual</text>

  <rect x="740" y="262" width="100" height="30" rx="5" fill="url(#cardGrad)" stroke="#252525" stroke-width="1"/>
  <text x="754" y="273" fill="#00d97e" font-size="10">◆</text>
  <text x="770" y="272" fill="#ccc" font-size="9">Codex CLI</text>
  <text x="770" y="284" fill="#444" font-size="7">auto-configured</text>

  <!-- Vertical connector lines between tool cols -->
  <line x1="732" y1="163" x2="740" y2="163" stroke="#1a1a1a" stroke-width="1"/>
  <line x1="732" y1="201" x2="740" y2="201" stroke="#1a1a1a" stroke-width="1"/>
  <line x1="732" y1="239" x2="740" y2="239" stroke="#1a1a1a" stroke-width="1"/>
  <line x1="732" y1="277" x2="740" y2="277" stroke="#1a1a1a" stroke-width="1"/>

  <!-- Connector from MCP to tool grid (branching lines) -->
  <line x1="620" y1="163" x2="732" y2="163" stroke="#00d97e" stroke-width="0.8" opacity="0.2"/>
  <line x1="620" y1="201" x2="732" y2="201" stroke="#00d97e" stroke-width="0.8" opacity="0.2"/>
  <line x1="620" y1="239" x2="732" y2="239" stroke="#00d97e" stroke-width="0.8" opacity="0.2"/>
  <line x1="620" y1="277" x2="732" y2="277" stroke="#00d97e" stroke-width="0.8" opacity="0.2"/>

  <!-- ═══════════════ BOTTOM ROW — PROPERTIES ═══════════════ -->
  <rect x="30" y="352" width="800" height="56" rx="6" fill="#0a0a0a" stroke="#1a1a1a" stroke-width="1"/>

  <!-- Properties -->
  <text x="100" y="374" text-anchor="middle" fill="#00d97e" font-size="16" opacity="0.7">⚡</text>
  <text x="100" y="392" text-anchor="middle" fill="#444" font-size="8">localhost only</text>
  <text x="100" y="402" text-anchor="middle" fill="#444" font-size="8">no latency</text>

  <line x1="180" y1="362" x2="180" y2="398" stroke="#1e1e1e" stroke-width="1"/>

  <text x="260" y="374" text-anchor="middle" fill="#00d97e" font-size="16" opacity="0.7">🔒</text>
  <text x="260" y="392" text-anchor="middle" fill="#444" font-size="8">secret scanning</text>
  <text x="260" y="402" text-anchor="middle" fill="#444" font-size="8">auto-redact</text>

  <line x1="340" y1="362" x2="340" y2="398" stroke="#1e1e1e" stroke-width="1"/>

  <text x="430" y="374" text-anchor="middle" fill="#00d97e" font-size="16" opacity="0.7">📦</text>
  <text x="430" y="392" text-anchor="middle" fill="#444" font-size="8">portable by design</text>
  <text x="430" y="402" text-anchor="middle" fill="#444" font-size="8">copy ~/.aura/packs/</text>

  <line x1="520" y1="362" x2="520" y2="398" stroke="#1e1e1e" stroke-width="1"/>

  <text x="610" y="374" text-anchor="middle" fill="#00d97e" font-size="16" opacity="0.7">🔄</text>
  <text x="610" y="392" text-anchor="middle" fill="#444" font-size="8">hot-reload</text>
  <text x="610" y="402" text-anchor="middle" fill="#444" font-size="8">--watch mode</text>

  <line x1="700" y1="362" x2="700" y2="398" stroke="#1e1e1e" stroke-width="1"/>

  <text x="775" y="374" text-anchor="middle" fill="#00d97e" font-size="16" opacity="0.7">🚫</text>
  <text x="775" y="392" text-anchor="middle" fill="#444" font-size="8">no cloud</text>
  <text x="775" y="402" text-anchor="middle" fill="#444" font-size="8">no telemetry</text>

  <!-- Footer -->
  <text x="430" y="444" text-anchor="middle" fill="#222" font-size="8" letter-spacing="2">8,500+ LINES · 151 TESTS · 24 COMMANDS · 14 TEMPLATES · MIT LICENSE</text>

  <!-- Subtle corner decoration -->
  <text x="44" y="490" fill="#1a1a1a" font-size="9">pip install -U aura-ctx</text>
  <text x="816" y="490" text-anchor="end" fill="#1a1a1a" font-size="9">github.com/WozGeek/aura-ctx</text>
</svg>
